# xmcd CD database file
#
# Track frame offsets:
#	150
#	19064
#	32116
#	52070
#	68235
#	89948
#	107130
#	123391
#	137526
#	157094
#	175406
#	191493
#	209313
#	226710
#	253409
#	270830
#	288378
#	308246
#
# Disc length: 4392 seconds
#
# Revision: 1
# Processed by: cddbd v1.5.1PL2 Copyright (c) Steve Scherf et al.
# Submitted via: CDex 1.51
#
DISCID=0c112612
DTITLE=Various Artist - MORE 80´s  [CD 1)
DYEAR=2005
DGENRE=Rock - Pop
TTITLE0=ORCHESTRAL MANOEUVRES IN THE DARK - Maid of Orleans
TTITLE1=SPANDAU BALLET - She loved like diamond
TTITLE2=DURAN DURAN - Do you believe in shame?
TTITLE3=HUE and CRY - Labour of love
TTITLE4=SCRITTI POLITTI - Wood beez (Pray like Aretha Franklin)
TTITLE5=TALK TALK - Dum dum girl
TTITLE6=HEAVEN 17 - Come live with me
TTITLE7=PALE FOUNDATIONS - Thank you
TTITLE8=JOHNNY HATES JAZZ - Turn back the clock
TTITLE9=IT BITES - Calling all the heroes
TTITLE10=MARTHA and THE MUFFINS - Echo beach
TTITLE11=WYLIE, PETE -Sinful
TTITLE12=FRA LIPPI LIPPI - Shouldn´t have to be like that
TTITLE13=BLUE NILE - Tinseltown in the rain
TTITLE14=IT´S IMMATERIAL - Driving away from home (Jim´s tune)
TTITLE15=ENGAMES - Waiting for another chance
TTITLE16=TIERRA - Together
TTITLE17=CARNES, KIM - Mistaken identity
EXTD=YEAR: 2005
EXTT0=
EXTT1=
EXTT2=
EXTT3=
EXTT4=
EXTT5=
EXTT6=
EXTT7=
EXTT8=
EXTT9=
EXTT10=
EXTT11=
EXTT12=
EXTT13=
EXTT14=
EXTT15=
EXTT16=
EXTT17=
PLAYORDER=
